AmstelvarAlpha-wdth-151.ufo
<glyph name="exclam" format="1">
  <advance width="338"/>
  <unicode hex="0021"/>
  <outline>
    <contour>
      <point x="53" y="92" type="qcurve" smooth="yes"/>
      <point x="53" y="144"/>
      <point x="115" y="207"/>
      <point x="169" y="207" type="qcurve" smooth="yes"/>
      <point x="221" y="207"/>
      <point x="284" y="142"/>
      <point x="284" y="92" type="qcurve" smooth="yes"/>
      <point x="284" y="40"/>
      <point x="223" y="-22"/>
      <point x="169" y="-22" type="qcurve" smooth="yes"/>
      <point x="117" y="-22"/>
      <point x="53" y="43"/>
    </contour>
    <contour>
      <point x="87" y="1520" type="line"/>
      <point x="252" y="1520" type="line"/>
      <point x="241" y="1116" type="line"/>
      <point x="218" y="809" type="line"/>
      <point x="207" y="426" type="line"/>
      <point x="130" y="426" type="line"/>
      <point x="120" y="809" type="line"/>
      <point x="98" y="1116" type="line"/>
    </contour>
  </outline>
</glyph>
<glyph name="quotedbl" format="1">
  <advance width="564"/>
  <unicode hex="0022"/>
  <outline>
    <contour>
      <point x="132" y="964" type="line"/>
      <point x="55" y="1424" type="line"/>
      <point x="55" y="1474"/>
      <point x="102" y="1558"/>
      <point x="154" y="1558" type="qcurve" smooth="yes"/>
      <point x="206" y="1558"/>
      <point x="252" y="1474"/>
      <point x="252" y="1424" type="qcurve"/>
      <point x="173" y="964" type="line"/>
    </contour>
    <contour>
      <point x="389" y="964" type="line"/>
      <point x="311" y="1424" type="line"/>
      <point x="311" y="1474"/>
      <point x="357" y="1558"/>
      <point x="410" y="1558" type="qcurve" smooth="yes"/>
      <point x="462" y="1558"/>
      <point x="508" y="1474"/>
      <point x="508" y="1424" type="qcurve"/>
      <point x="429" y="964" type="line"/>
    </contour>
  </outline>
</glyph>
<glyph name="dollar" format="1">
  <advance width="614"/>
  <unicode hex="0024"/>
  <outline>
    <contour>
      <point x="22" y="253" type="qcurve"/>
      <point x="114" y="297" type="line"/>
      <point x="142" y="203"/>
      <point x="234" y="107"/>
      <point x="313" y="107" type="qcurve" smooth="yes"/>
      <point x="384" y="107"/>
      <point x="464" y="212"/>
      <point x="464" y="305" type="qcurve" smooth="yes"/>
      <point x="464" y="444"/>
      <point x="329" y="667"/>
      <point x="240" y="754" type="qcurve" smooth="yes"/>
      <point x="138" y="853"/>
      <point x="46" y="1061"/>
      <point x="46" y="1202" type="qcurve" smooth="yes"/>
      <point x="46" y="1332"/>
      <point x="183" y="1501"/>
      <point x="293" y="1501" type="qcurve" smooth="yes"/>
      <point x="371" y="1501"/>
      <point x="479" y="1423"/>
      <point x="515" y="1358" type="qcurve"/>
      <point x="434" y="1277" type="line"/>
      <point x="413" y="1323"/>
      <point x="343" y="1387"/>
      <point x="292" y="1387" type="qcurve" smooth="yes"/>
      <point x="233" y="1387"/>
      <point x="170" y="1316"/>
      <point x="170" y="1219" type="qcurve" smooth="yes"/>
      <point x="170" y="1128"/>
      <point x="259" y="961"/>
      <point x="354" y="872" type="qcurve" smooth="yes"/>
      <point x="456" y="767"/>
      <point x="592" y="528"/>
      <point x="592" y="359" type="qcurve" smooth="yes"/>
      <point x="592" y="187"/>
      <point x="447" y="1"/>
      <point x="320" y="1" type="qcurve" smooth="yes"/>
      <point x="200" y="1"/>
      <point x="51" y="144"/>
    </contour>
    <contour>
      <point x="252" y="-167" type="line"/>
      <point x="252" y="48" type="line"/>
      <point x="258" y="48" type="line"/>
      <point x="258" y="87" type="line"/>
      <point x="373" y="80" type="line"/>
      <point x="373" y="48" type="line"/>
      <point x="381" y="48" type="line"/>
      <point x="381" y="-141" type="line"/>
    </contour>
    <contour>
      <point x="231" y="1573" type="line"/>
      <point x="361" y="1596" type="line"/>
      <point x="361" y="1444" type="line"/>
      <point x="354" y="1444" type="line"/>
      <point x="354" y="1411" type="line"/>
      <point x="238" y="1430" type="line"/>
      <point x="238" y="1444" type="line"/>
      <point x="231" y="1444" type="line"/>
    </contour>
  </outline>
</glyph>
<glyph name="quotesingle" format="1">
  <advance width="319"/>
  <unicode hex="0027"/>
  <outline>
    <contour>
      <point x="138" y="964" type="line"/>
      <point x="59" y="1424" type="line"/>
      <point x="58" y="1474"/>
      <point x="106" y="1558"/>
      <point x="160" y="1558" type="qcurve" smooth="yes"/>
      <point x="213" y="1558"/>
      <point x="261" y="1474"/>
      <point x="260" y="1424" type="qcurve"/>
      <point x="180" y="964" type="line"/>
    </contour>
  </outline>
</glyph>
<glyph name="parenleft" format="1">
  <advance width="398"/>
  <unicode hex="0028"/>
  <outline>
    <contour>
      <point x="27" y="672" type="qcurve" smooth="yes"/>
      <point x="27" y="924"/>
      <point x="216" y="1400"/>
      <point x="315" y="1525" type="qcurve"/>
      <point x="392" y="1475" type="line"/>
      <point x="311" y="1338"/>
      <point x="191" y="912"/>
      <point x="191" y="672" type="qcurve" smooth="yes"/>
      <point x="191" y="432"/>
      <point x="306" y="21"/>
      <point x="391" y="-132" type="qcurve"/>
      <point x="315" y="-181" type="line"/>
      <point x="214" y="-37"/>
      <point x="27" y="412"/>
    </contour>
  </outline>
</glyph>
<glyph name="hyphen" format="1">
  <advance width="412"/>
  <unicode hex="002D"/>
  <outline>
    <contour>
      <point x="29" y="561" type="line"/>
      <point x="29" y="703" type="line"/>
      <point x="206" y="699" type="line"/>
      <point x="383" y="703" type="line"/>
      <point x="383" y="561" type="line"/>
      <point x="206" y="565" type="line"/>
    </contour>
  </outline>
</glyph>
<glyph name="slash" format="1">
  <advance width="363"/>
  <unicode hex="002F"/>
  <outline>
    <contour>
      <point x="-11" y="-140" type="line"/>
      <point x="262" y="1533" type="line"/>
      <point x="364" y="1518" type="line"/>
      <point x="91" y="-154" type="line"/>
    </contour>
  </outline>
</glyph>
<glyph name="zero" format="1">
  <advance width="648"/>
  <unicode hex="0030"/>
  <outline>
    <contour>
      <point x="26" y="756" type="qcurve" smooth="yes"/>
      <point x="26" y="1175"/>
      <point x="183" y="1520"/>
      <point x="325" y="1520" type="qcurve" smooth="yes"/>
      <point x="468" y="1520"/>
      <point x="622" y="1174"/>
      <point x="622" y="755" type="qcurve" smooth="yes"/>
      <point x="622" y="338"/>
      <point x="470" y="-23"/>
      <point x="328" y="-23" type="qcurve" smooth="yes"/>
      <point x="191" y="-23"/>
      <point x="26" y="318"/>
    </contour>
    <contour>
      <point x="182" y="763" type="qcurve" smooth="yes"/>
      <point x="183" y="324"/>
      <point x="251" y="89"/>
      <point x="324" y="89" type="qcurve" smooth="yes"/>
      <point x="401" y="89"/>
      <point x="465" y="296"/>
      <point x="466" y="754" type="qcurve" smooth="yes"/>
      <point x="467" y="1196"/>
      <point x="392" y="1400"/>
      <point x="325" y="1400" type="qcurve" smooth="yes"/>
      <point x="252" y="1400"/>
      <point x="182" y="1205"/>
    </contour>
  </outline>
</glyph>
<glyph name="one" format="1">
  <advance width="464"/>
  <unicode hex="0031"/>
  <outline>
    <contour>
      <point x="28" y="0" type="line"/>
      <point x="28" y="87" type="line"/>
      <point x="161" y="124" type="line"/>
      <point x="161" y="754" type="line"/>
      <point x="159" y="1348" type="line"/>
      <point x="26" y="1384" type="line"/>
      <point x="26" y="1480" type="line"/>
      <point x="287" y="1514" type="line"/>
      <point x="316" y="1486" type="line"/>
      <point x="310" y="754" type="line"/>
      <point x="310" y="124" type="line"/>
      <point x="443" y="87" type="line"/>
      <point x="443" y="0" type="line"/>
    </contour>
  </outline>
</glyph>
<glyph name="two" format="1">
  <advance width="480"/>
  <unicode hex="0032"/>
  <outline>
    <contour>
      <point x="6" y="0" type="line"/>
      <point x="6" y="124" type="line"/>
      <point x="12" y="252"/>
      <point x="73" y="498"/>
      <point x="139" y="635" type="qcurve" smooth="yes"/>
      <point x="205" y="769"/>
      <point x="279" y="988"/>
      <point x="279" y="1140" type="qcurve" smooth="yes"/>
      <point x="279" y="1297"/>
      <point x="213" y="1396"/>
      <point x="158" y="1396" type="qcurve" smooth="yes"/>
      <point x="114" y="1396"/>
      <point x="46" y="1356"/>
      <point x="17" y="1321" type="qcurve"/>
      <point x="17" y="1421" type="line"/>
      <point x="46" y="1460"/>
      <point x="148" y="1520"/>
      <point x="223" y="1520" type="qcurve" smooth="yes"/>
      <point x="328" y="1520"/>
      <point x="448" y="1329"/>
      <point x="448" y="1149" type="qcurve" smooth="yes"/>
      <point x="448" y="949"/>
      <point x="308" y="640"/>
      <point x="242" y="536" type="qcurve" smooth="yes"/>
      <point x="180" y="438"/>
      <point x="118" y="260"/>
      <point x="110" y="151" type="qcurve"/>
      <point x="114" y="142" type="line"/>
      <point x="471" y="142" type="line"/>
      <point x="471" y="0" type="line"/>
    </contour>
  </outline>
</glyph>
<glyph name="three" format="1">
  <advance width="522"/>
  <unicode hex="0033"/>
  <outline>
    <contour>
      <point x="3" y="53" type="qcurve"/>
      <point x="3" y="160" type="line"/>
      <point x="40" y="127"/>
      <point x="128" y="98"/>
      <point x="179" y="98" type="qcurve" smooth="yes"/>
      <point x="257" y="98"/>
      <point x="350" y="221"/>
      <point x="350" y="406" type="qcurve" smooth="yes"/>
      <point x="350" y="575"/>
      <point x="224" y="732"/>
      <point x="134" y="732" type="qcurve" smooth="yes"/>
      <point x="100" y="732" type="line"/>
      <point x="89" y="825" type="line"/>
      <point x="143" y="830" type="line" smooth="yes"/>
      <point x="225" y="834"/>
      <point x="325" y="981"/>
      <point x="325" y="1159" type="qcurve" smooth="yes"/>
      <point x="325" y="1313"/>
      <point x="246" y="1407"/>
      <point x="183" y="1407" type="qcurve" smooth="yes"/>
      <point x="140" y="1407"/>
      <point x="71" y="1379"/>
      <point x="35" y="1347" type="qcurve"/>
      <point x="34" y="1437" type="line"/>
      <point x="68" y="1476"/>
      <point x="168" y="1520"/>
      <point x="242" y="1520" type="qcurve" smooth="yes"/>
      <point x="347" y="1520"/>
      <point x="481" y="1349"/>
      <point x="481" y="1180" type="qcurve" smooth="yes"/>
      <point x="481" y="1022"/>
      <point x="373" y="834"/>
      <point x="268" y="799" type="qcurve"/>
      <point x="268" y="792" type="line"/>
      <point x="375" y="770"/>
      <point x="511" y="578"/>
      <point x="511" y="396" type="qcurve" smooth="yes"/>
      <point x="511" y="212"/>
      <point x="351" y="-21"/>
      <point x="222" y="-21" type="qcurve" smooth="yes"/>
      <point x="151" y="-21"/>
      <point x="42" y="19"/>
    </contour>
  </outline>
</glyph>
<glyph name="four" format="1">
  <advance width="620"/>
  <unicode hex="0034"/>
  <outline>
    <contour>
      <point x="20" y="448" type="line"/>
      <point x="3" y="530" type="line"/>
      <point x="342" y="1510" type="line"/>
      <point x="455" y="1510" type="line"/>
      <point x="487" y="1480" type="line"/>
      <point x="482" y="540" type="line"/>
      <point x="619" y="540" type="line"/>
      <point x="619" y="466" type="line"/>
      <point x="481" y="460" type="line"/>
      <point x="481" y="124" type="line"/>
      <point x="592" y="87" type="line"/>
      <point x="592" y="0" type="line"/>
      <point x="217" y="0" type="line"/>
      <point x="217" y="87" type="line"/>
      <point x="332" y="124" type="line"/>
      <point x="332" y="454" type="line"/>
    </contour>
    <contour>
      <point x="121" y="540" type="line"/>
      <point x="325" y="540" type="line"/>
      <point x="329" y="1150" type="line"/>
      <point x="115" y="549" type="line"/>
    </contour>
  </outline>
</glyph>
<glyph name="five" format="1">
  <advance width="528"/>
  <unicode hex="0035"/>
  <outline>
    <contour>
      <point x="1" y="48" type="qcurve"/>
      <point x="1" y="155" type="line"/>
      <point x="39" y="124"/>
      <point x="122" y="95"/>
      <point x="178" y="95" type="qcurve" smooth="yes"/>
      <point x="258" y="95"/>
      <point x="355" y="265"/>
      <point x="355" y="465" type="qcurve" smooth="yes"/>
      <point x="355" y="654"/>
      <point x="240" y="797"/>
      <point x="145" y="797" type="qcurve" smooth="yes"/>
      <point x="72" y="797" type="line"/>
      <point x="109" y="897" type="line"/>
      <point x="230" y="940" type="line"/>
      <point x="365" y="939"/>
      <point x="515" y="724"/>
      <point x="515" y="475" type="qcurve" smooth="yes"/>
      <point x="515" y="223"/>
      <point x="353" y="-22"/>
      <point x="220" y="-22" type="qcurve" smooth="yes"/>
      <point x="150" y="-22"/>
      <point x="42" y="15"/>
    </contour>
    <contour>
      <point x="71" y="799" type="qcurve"/>
      <point x="88" y="1468" type="line"/>
      <point x="114" y="1500" type="line"/>
      <point x="486" y="1500" type="line"/>
      <point x="482" y="1350" type="line"/>
      <point x="207" y="1350" type="line"/>
      <point x="197" y="1339" type="line"/>
      <point x="184" y="996"/>
      <point x="144" y="799"/>
    </contour>
  </outline>
</glyph>
<glyph name="six" format="1">
  <advance width="646"/>
  <unicode hex="0036"/>
  <outline>
    <contour>
      <point x="26" y="658" type="qcurve" smooth="yes"/>
      <point x="26" y="1102"/>
      <point x="261" y="1501"/>
      <point x="473" y="1540" type="qcurve"/>
      <point x="473" y="1419" type="line"/>
      <point x="323" y="1382"/>
      <point x="180" y="1078"/>
      <point x="181" y="666" type="qcurve" smooth="yes"/>
      <point x="182" y="226"/>
      <point x="264" y="90"/>
      <point x="334" y="90" type="qcurve" smooth="yes"/>
      <point x="399" y="90"/>
      <point x="471" y="195"/>
      <point x="471" y="457" type="qcurve" smooth="yes"/>
      <point x="471" y="696"/>
      <point x="399" y="805"/>
      <point x="328" y="805" type="qcurve" smooth="yes"/>
      <point x="307" y="805"/>
      <point x="265" y="795"/>
      <point x="252" y="788" type="qcurve"/>
      <point x="244" y="857" type="line"/>
      <point x="259" y="886"/>
      <point x="324" y="925"/>
      <point x="364" y="925" type="qcurve" smooth="yes"/>
      <point x="484" y="925"/>
      <point x="627" y="712"/>
      <point x="627" y="471" type="qcurve" smooth="yes"/>
      <point x="627" y="225"/>
      <point x="469" y="-22"/>
      <point x="338" y="-22" type="qcurve" smooth="yes"/>
      <point x="204" y="-22"/>
      <point x="26" y="271"/>
    </contour>
  </outline>
</glyph>
<glyph name="seven" format="1">
  <advance width="527"/>
  <unicode hex="0037"/>
  <outline>
    <contour>
      <point x="10" y="1227" type="line"/>
      <point x="10" y="1500" type="line"/>
      <point x="529" y="1500" type="line"/>
      <point x="529" y="1379" type="line"/>
      <point x="379" y="677" type="line"/>
      <point x="231" y="-26" type="line"/>
      <point x="140" y="-26" type="line"/>
      <point x="140" y="43" type="line"/>
      <point x="269" y="690" type="line"/>
      <point x="392" y="1337" type="line"/>
      <point x="377" y="1351" type="line"/>
      <point x="132" y="1351" type="line"/>
      <point x="97" y="1227" type="line"/>
    </contour>
  </outline>
</glyph>
<glyph name="eight" format="1">
  <advance width="593"/>
  <unicode hex="0038"/>
  <outline>
    <contour>
      <point x="21" y="359" type="qcurve" smooth="yes"/>
      <point x="21" y="527"/>
      <point x="157" y="761"/>
      <point x="239" y="838" type="qcurve"/>
      <point x="296" y="778" type="line"/>
      <point x="236" y="713"/>
      <point x="152" y="503"/>
      <point x="152" y="370" type="qcurve" smooth="yes"/>
      <point x="152" y="210"/>
      <point x="221" y="87"/>
      <point x="290" y="87" type="qcurve" smooth="yes"/>
      <point x="360" y="87"/>
      <point x="427" y="216"/>
      <point x="427" y="359" type="qcurve" smooth="yes"/>
      <point x="427" y="485"/>
      <point x="333" y="656"/>
      <point x="251" y="742" type="qcurve" smooth="yes"/>
      <point x="155" y="839"/>
      <point x="60" y="1025"/>
      <point x="60" y="1191" type="qcurve" smooth="yes"/>
      <point x="60" y="1342"/>
      <point x="195" y="1520"/>
      <point x="300" y="1520" type="qcurve" smooth="yes"/>
      <point x="407" y="1520"/>
      <point x="528" y="1365"/>
      <point x="528" y="1217" type="qcurve" smooth="yes"/>
      <point x="528" y="1087"/>
      <point x="426" y="887"/>
      <point x="342" y="802" type="qcurve"/>
      <point x="276" y="851" type="line"/>
      <point x="333" y="924"/>
      <point x="394" y="1095"/>
      <point x="394" y="1208" type="qcurve" smooth="yes"/>
      <point x="394" y="1313"/>
      <point x="342" y="1406"/>
      <point x="287" y="1406" type="qcurve" smooth="yes"/>
      <point x="230" y="1406"/>
      <point x="181" y="1304"/>
      <point x="181" y="1210" type="qcurve" smooth="yes"/>
      <point x="181" y="1104"/>
      <point x="252" y="967"/>
      <point x="354" y="864" type="qcurve" smooth="yes"/>
      <point x="448" y="769"/>
      <point x="571" y="543"/>
      <point x="571" y="373" type="qcurve" smooth="yes"/>
      <point x="571" y="193"/>
      <point x="415" y="-22"/>
      <point x="292" y="-22" type="qcurve" smooth="yes"/>
      <point x="168" y="-22"/>
      <point x="21" y="191"/>
    </contour>
  </outline>
</glyph>
<glyph name="colon" format="1">
  <advance width="388"/>
  <unicode hex="003A"/>
  <outline>
    <contour>
      <point x="73" y="98" type="qcurve" smooth="yes"/>
      <point x="73" y="147"/>
      <point x="140" y="219"/>
      <point x="193" y="219" type="qcurve" smooth="yes"/>
      <point x="246" y="219"/>
      <point x="315" y="147"/>
      <point x="315" y="98" type="qcurve" smooth="yes"/>
      <point x="315" y="50"/>
      <point x="246" y="-22"/>
      <point x="193" y="-22" type="qcurve" smooth="yes"/>
      <point x="140" y="-22"/>
      <point x="73" y="50"/>
    </contour>
    <contour>
      <point x="73" y="905" type="qcurve" smooth="yes"/>
      <point x="73" y="953"/>
      <point x="140" y="1026"/>
      <point x="193" y="1026" type="qcurve" smooth="yes"/>
      <point x="246" y="1026"/>
      <point x="315" y="953"/>
      <point x="315" y="905" type="qcurve" smooth="yes"/>
      <point x="315" y="857"/>
      <point x="246" y="785"/>
      <point x="193" y="785" type="qcurve" smooth="yes"/>
      <point x="140" y="785"/>
      <point x="73" y="857"/>
    </contour>
  </outline>
</glyph>
<glyph name="semicolon" format="1">
  <advance width="386"/>
  <unicode hex="003B"/>
  <outline>
    <contour>
      <point x="63" y="-231" type="line"/>
      <point x="105" y="-195"/>
      <point x="187" y="-79"/>
      <point x="202" y="-13" type="qcurve"/>
      <point x="140" y="-13"/>
      <point x="79" y="51"/>
      <point x="79" y="101" type="qcurve" smooth="yes"/>
      <point x="79" y="150"/>
      <point x="144" y="215"/>
      <point x="195" y="215" type="qcurve" smooth="yes"/>
      <point x="243" y="215"/>
      <point x="309" y="152"/>
      <point x="309" y="85" type="qcurve" smooth="yes"/>
      <point x="309" y="-13"/>
      <point x="186" y="-209"/>
      <point x="97" y="-270" type="qcurve"/>
    </contour>
    <contour>
      <point x="77" y="906" type="qcurve" smooth="yes"/>
      <point x="77" y="954"/>
      <point x="145" y="1026"/>
      <point x="197" y="1026" type="qcurve" smooth="yes"/>
      <point x="250" y="1026"/>
      <point x="319" y="954"/>
      <point x="319" y="906" type="qcurve" smooth="yes"/>
      <point x="319" y="857"/>
      <point x="250" y="785"/>
      <point x="197" y="785" type="qcurve" smooth="yes"/>
      <point x="145" y="785"/>
      <point x="77" y="857"/>
    </contour>
  </outline>
</glyph>
<glyph name="equal" format="1">
  <advance width="650"/>
  <unicode hex="003D"/>
  <outline>
    <contour>
      <point x="88" y="428" type="line"/>
      <point x="88" y="579" type="line"/>
      <point x="324" y="575" type="line"/>
      <point x="562" y="579" type="line"/>
      <point x="562" y="428" type="line"/>
      <point x="324" y="432" type="line"/>
    </contour>
    <contour>
      <point x="88" y="653" type="line"/>
      <point x="88" y="804" type="line"/>
      <point x="324" y="800" type="line"/>
      <point x="562" y="804" type="line"/>
      <point x="562" y="653" type="line"/>
      <point x="324" y="657" type="line"/>
    </contour>
  </outline>
</glyph>
<glyph name="question" format="1">
  <advance width="544"/>
  <unicode hex="003F"/>
  <outline>
    <contour>
      <point x="65" y="91" type="qcurve" smooth="yes"/>
      <point x="65" y="137"/>
      <point x="129" y="204"/>
      <point x="178" y="204" type="qcurve" smooth="yes"/>
      <point x="228" y="204"/>
      <point x="292" y="137"/>
      <point x="292" y="91" type="qcurve" smooth="yes"/>
      <point x="292" y="46"/>
      <point x="228" y="-22"/>
      <point x="178" y="-22" type="qcurve" smooth="yes"/>
      <point x="127" y="-22"/>
      <point x="65" y="46"/>
    </contour>
    <contour>
      <point x="37" y="1399" type="line"/>
      <point x="69" y="1448"/>
      <point x="180" y="1522"/>
      <point x="267" y="1522" type="qcurve" smooth="yes"/>
      <point x="380" y="1522"/>
      <point x="534" y="1312"/>
      <point x="534" y="1105" type="qcurve" smooth="yes"/>
      <point x="534" y="899"/>
      <point x="399" y="694"/>
      <point x="282" y="694" type="qcurve" smooth="yes"/>
      <point x="258" y="694"/>
      <point x="225" y="701"/>
      <point x="206" y="709" type="qcurve"/>
      <point x="203" y="425" type="line"/>
      <point x="132" y="425" type="line"/>
      <point x="133" y="611" type="line"/>
      <point x="126" y="778" type="line"/>
      <point x="155" y="811" type="line"/>
      <point x="171" y="805"/>
      <point x="217" y="799"/>
      <point x="241" y="799" type="qcurve" smooth="yes"/>
      <point x="304" y="799"/>
      <point x="375" y="909"/>
      <point x="375" y="1108" type="qcurve" smooth="yes"/>
      <point x="375" y="1302"/>
      <point x="292" y="1417"/>
      <point x="224" y="1417" type="qcurve" smooth="yes"/>
      <point x="177" y="1417"/>
      <point x="100" y="1381"/>
      <point x="74" y="1352" type="qcurve"/>
    </contour>
  </outline>
</glyph>
<glyph name="at" format="1">
  <advance width="1070"/>
  <unicode hex="0040"/>
  <outline>
    <contour>
      <point x="26" y="750" type="qcurve" smooth="yes"/>
      <point x="26" y="1067"/>
      <point x="303" y="1510"/>
      <point x="548" y="1510" type="qcurve" smooth="yes"/>
      <point x="779" y="1510"/>
      <point x="1049" y="1132"/>
      <point x="1049" y="826" type="qcurve" smooth="yes"/>
      <point x="1049" y="593"/>
      <point x="891" y="353"/>
      <point x="765" y="353" type="qcurve" smooth="yes"/>
      <point x="675" y="353"/>
      <point x="588" y="457"/>
      <point x="588" y="542" type="qcurve"/>
      <point x="591" y="937" type="line" smooth="yes"/>
      <point x="592" y="1019"/>
      <point x="538" y="1081"/>
      <point x="485" y="1081" type="qcurve" smooth="yes"/>
      <point x="447" y="1081"/>
      <point x="391" y="1048"/>
      <point x="362" y="1006" type="qcurve"/>
      <point x="314" y="1052" type="line"/>
      <point x="343" y="1113"/>
      <point x="444" y="1191"/>
      <point x="523" y="1191" type="qcurve" smooth="yes"/>
      <point x="617" y="1191"/>
      <point x="724" y="1067"/>
      <point x="725" y="950" type="qcurve" smooth="yes"/>
      <point x="729" y="502" type="line"/>
      <point x="735" y="468"/>
      <point x="768" y="443"/>
      <point x="800" y="443" type="qcurve" smooth="yes"/>
      <point x="883" y="443"/>
      <point x="968" y="618"/>
      <point x="968" y="813" type="qcurve" smooth="yes"/>
      <point x="968" y="1056"/>
      <point x="765" y="1382"/>
      <point x="548" y="1382" type="qcurve" smooth="yes"/>
      <point x="326" y="1382"/>
      <point x="111" y="1050"/>
      <point x="112" y="761" type="qcurve" smooth="yes"/>
      <point x="113" y="448"/>
      <point x="344" y="90"/>
      <point x="558" y="90" type="qcurve" smooth="yes"/>
      <point x="644" y="90"/>
      <point x="782" y="140"/>
      <point x="820" y="173" type="qcurve"/>
      <point x="852" y="118" type="line"/>
      <point x="800" y="54"/>
      <point x="636" y="-20"/>
      <point x="545" y="-20" type="qcurve" smooth="yes"/>
      <point x="307" y="-20"/>
      <point x="26" y="406"/>
    </contour>
    <contour>
      <point x="252" y="590" type="qcurve" smooth="yes"/>
      <point x="252" y="714"/>
      <point x="422" y="869"/>
      <point x="603" y="940" type="qcurve"/>
      <point x="605" y="864" type="line"/>
      <point x="505" y="817"/>
      <point x="397" y="718"/>
      <point x="397" y="597" type="qcurve" smooth="yes"/>
      <point x="397" y="495"/>
      <point x="442" y="445"/>
      <point x="484" y="445" type="qcurve" smooth="yes"/>
      <point x="531" y="445"/>
      <point x="593" y="525"/>
      <point x="594" y="604" type="qcurve"/>
      <point x="642" y="604" type="line"/>
      <point x="644" y="491"/>
      <point x="518" y="343"/>
      <point x="430" y="343" type="qcurve" smooth="yes"/>
      <point x="341" y="343"/>
      <point x="252" y="481"/>
    </contour>
  </outline>
</glyph>
<glyph name="D" format="1">
  <advance width="782"/>
  <unicode hex="0044"/>
  <outline>
    <contour>
      <point x="28" y="0" type="line"/>
      <point x="28" y="93" type="line"/>
      <point x="125" y="130" type="line"/>
      <point x="127" y="755" type="line"/>
      <point x="125" y="1359" type="line"/>
      <point x="28" y="1394" type="line"/>
      <point x="28" y="1500" type="line"/>
      <point x="342" y="1500" type="line" smooth="yes"/>
      <point x="528" y="1500"/>
      <point x="755" y="1199"/>
      <point x="755" y="776" type="qcurve" smooth="yes"/>
      <point x="755" y="333"/>
      <point x="528" y="0"/>
      <point x="321" y="0" type="qcurve" smooth="yes"/>
    </contour>
    <contour>
      <point x="276" y="125" type="line"/>
      <point x="290" y="118"/>
      <point x="348" y="104"/>
      <point x="375" y="104" type="qcurve" smooth="yes"/>
      <point x="477" y="104"/>
      <point x="593" y="363"/>
      <point x="593" y="762" type="qcurve"/>
      <point x="594" y="1157"/>
      <point x="467" y="1385"/>
      <point x="363" y="1385" type="qcurve" smooth="yes"/>
      <point x="342" y="1385"/>
      <point x="291" y="1371"/>
      <point x="276" y="1363" type="qcurve"/>
      <point x="276" y="755" type="line"/>
    </contour>
  </outline>
</glyph>
<glyph name="F" format="1">
  <advance width="601"/>
  <unicode hex="0046"/>
  <outline>
    <contour>
      <point x="28" y="0" type="line"/>
      <point x="28" y="93" type="line"/>
      <point x="125" y="131" type="line"/>
      <point x="127" y="764" type="line"/>
      <point x="125" y="1359" type="line"/>
      <point x="28" y="1394" type="line"/>
      <point x="28" y="1500" type="line"/>
      <point x="593" y="1500" type="line"/>
      <point x="593" y="1215" type="line"/>
      <point x="497" y="1215" type="line"/>
      <point x="456" y="1391" type="line"/>
      <point x="315" y="1391" type="line"/>
      <point x="271" y="1362" type="line"/>
      <point x="276" y="764" type="line"/>
      <point x="278" y="127" type="line"/>
      <point x="388" y="93" type="line"/>
      <point x="388" y="0" type="line"/>
    </contour>
    <contour>
      <point x="196" y="730" type="line"/>
      <point x="196" y="825" type="line"/>
      <point x="419" y="831" type="line"/>
      <point x="443" y="948" type="line"/>
      <point x="529" y="948" type="line"/>
      <point x="529" y="598" type="line"/>
      <point x="443" y="598" type="line"/>
      <point x="419" y="724" type="line"/>
    </contour>
  </outline>
</glyph>
<glyph name="G" format="1">
  <advance width="754"/>
  <unicode hex="0047"/>
  <outline>
    <contour>
      <point x="27" y="748" type="qcurve" smooth="yes"/>
      <point x="27" y="1178"/>
      <point x="234" y="1510"/>
      <point x="400" y="1510" type="qcurve" smooth="yes"/>
      <point x="474" y="1510"/>
      <point x="585" y="1437"/>
      <point x="621" y="1381" type="qcurve"/>
      <point x="552" y="1275" type="line"/>
      <point x="513" y="1341"/>
      <point x="438" y="1391"/>
      <point x="395" y="1391" type="qcurve" smooth="yes"/>
      <point x="296" y="1391"/>
      <point x="190" y="1186"/>
      <point x="191" y="767" type="qcurve" smooth="yes"/>
      <point x="191" y="350"/>
      <point x="308" y="99"/>
      <point x="431" y="99" type="qcurve" smooth="yes"/>
      <point x="498" y="99"/>
      <point x="597" y="171"/>
      <point x="622" y="242" type="qcurve"/>
      <point x="690" y="204" type="line"/>
      <point x="669" y="108"/>
      <point x="527" y="-18"/>
      <point x="412" y="-18" type="qcurve" smooth="yes"/>
      <point x="232" y="-18"/>
      <point x="27" y="316"/>
    </contour>
    <contour>
      <point x="459" y="614" type="line"/>
      <point x="459" y="707" type="line"/>
      <point x="745" y="707" type="line"/>
      <point x="745" y="614" type="line"/>
      <point x="682" y="579" type="line"/>
      <point x="682" y="202" type="line"/>
      <point x="540" y="123" type="line"/>
      <point x="540" y="579" type="line"/>
    </contour>
    <contour>
      <point x="523" y="1317" type="line"/>
      <point x="597" y="1488" type="line"/>
      <point x="667" y="1488" type="line"/>
      <point x="667" y="1129" type="line"/>
      <point x="581" y="1129" type="line"/>
    </contour>
  </outline>
</glyph>
<glyph name="J" format="1">
  <advance width="416"/>
  <unicode hex="004A"/>
  <outline>
    <contour>
      <point x="7" y="0" type="qcurve"/>
      <point x="7" y="95" type="line"/>
      <point x="38" y="95" type="line" smooth="yes"/>
      <point x="107" y="95"/>
      <point x="168" y="163"/>
      <point x="168" y="246" type="qcurve" smooth="yes"/>
      <point x="166" y="754" type="line"/>
      <point x="164" y="1359" type="line"/>
      <point x="56" y="1394" type="line"/>
      <point x="56" y="1500" type="line"/>
      <point x="410" y="1500" type="line"/>
      <point x="410" y="1394" type="line"/>
      <point x="317" y="1359" type="line"/>
      <point x="315" y="754" type="line"/>
      <point x="318" y="262" type="line" smooth="yes"/>
      <point x="318" y="133"/>
      <point x="197" y="-12"/>
      <point x="107" y="-12" type="qcurve" smooth="yes"/>
      <point x="71" y="-12"/>
      <point x="25" y="-5"/>
    </contour>
  </outline>
</glyph>
<glyph name="K" format="1">
  <advance width="779"/>
  <unicode hex="004B"/>
  <outline>
    <contour>
      <point x="28" y="0" type="line"/>
      <point x="28" y="93" type="line"/>
      <point x="125" y="129" type="line"/>
      <point x="127" y="754" type="line"/>
      <point x="125" y="1359" type="line"/>
      <point x="28" y="1394" type="line"/>
      <point x="28" y="1500" type="line"/>
      <point x="368" y="1500" type="line"/>
      <point x="368" y="1394" type="line"/>
      <point x="277" y="1359" type="line"/>
      <point x="269" y="754" type="line"/>
      <point x="277" y="129" type="line"/>
      <point x="368" y="93" type="line"/>
      <point x="368" y="0" type="line"/>
    </contour>
    <contour>
      <point x="223" y="472" type="line"/>
      <point x="211" y="672" type="line"/>
      <point x="521" y="1356" type="line"/>
      <point x="448" y="1394" type="line"/>
      <point x="448" y="1500" type="line"/>
      <point x="746" y="1500" type="line"/>
      <point x="746" y="1394" type="line"/>
      <point x="659" y="1356" type="line"/>
    </contour>
    <contour>
      <point x="351" y="778" type="line"/>
      <point x="439" y="991" type="line"/>
      <point x="699" y="129" type="line"/>
      <point x="787" y="93" type="line"/>
      <point x="787" y="0" type="line"/>
      <point x="461" y="0" type="line"/>
      <point x="461" y="93" type="line"/>
      <point x="540" y="129" type="line"/>
    </contour>
  </outline>
</glyph>
<glyph name="M" format="1">
  <advance width="1050"/>
  <unicode hex="004D"/>
  <outline>
    <contour>
      <point x="28" y="0" type="line"/>
      <point x="28" y="93" type="line"/>
      <point x="115" y="128" type="line"/>
      <point x="117" y="753" type="line"/>
      <point x="115" y="1360" type="line"/>
      <point x="28" y="1394" type="line"/>
      <point x="28" y="1500" type="line"/>
      <point x="332" y="1500" type="line"/>
      <point x="423" y="936" type="line"/>
      <point x="500" y="476" type="line"/>
      <point x="582" y="940" type="line"/>
      <point x="681" y="1500" type="line"/>
      <point x="1022" y="1500" type="line"/>
      <point x="1022" y="1394" type="line"/>
      <point x="925" y="1359" type="line"/>
      <point x="923" y="753" type="line"/>
      <point x="925" y="129" type="line"/>
      <point x="1022" y="93" type="line"/>
      <point x="1022" y="0" type="line"/>
      <point x="664" y="0" type="line"/>
      <point x="664" y="93" type="line"/>
      <point x="772" y="129" type="line"/>
      <point x="774" y="753" type="line"/>
      <point x="772" y="1348" type="line"/>
      <point x="675" y="771" type="line"/>
      <point x="550" y="-2" type="line"/>
      <point x="437" y="-2" type="line"/>
      <point x="323" y="756" type="line"/>
      <point x="229" y="1349" type="line"/>
      <point x="228" y="753" type="line"/>
      <point x="229" y="128" type="line"/>
      <point x="321" y="93" type="line"/>
      <point x="321" y="0" type="line"/>
    </contour>
  </outline>
</glyph>
<glyph name="U" format="1">
  <advance width="808"/>
  <unicode hex="0055"/>
  <outline>
    <contour>
      <point x="24" y="1394" type="line"/>
      <point x="24" y="1500" type="line"/>
      <point x="366" y="1500" type="line"/>
      <point x="366" y="1394" type="line"/>
      <point x="276" y="1358" type="line"/>
      <point x="273" y="795" type="line"/>
      <point x="274" y="286" type="line" smooth="yes"/>
      <point x="274" y="173"/>
      <point x="344" y="89"/>
      <point x="420" y="89" type="qcurve" smooth="yes"/>
      <point x="488" y="89"/>
      <point x="567" y="179"/>
      <point x="567" y="296" type="qcurve" smooth="yes"/>
      <point x="567" y="794" type="line"/>
      <point x="567" y="1360" type="line"/>
      <point x="480" y="1394" type="line"/>
      <point x="480" y="1500" type="line"/>
      <point x="791" y="1500" type="line"/>
      <point x="791" y="1394" type="line"/>
      <point x="702" y="1360" type="line"/>
      <point x="702" y="794" type="line"/>
      <point x="703" y="318" type="line" smooth="yes"/>
      <point x="703" y="134"/>
      <point x="551" y="-16"/>
      <point x="419" y="-16" type="qcurve" smooth="yes"/>
      <point x="279" y="-16"/>
      <point x="122" y="140"/>
      <point x="123" y="309" type="qcurve"/>
      <point x="123" y="795" type="line"/>
      <point x="123" y="1358" type="line"/>
    </contour>
  </outline>
</glyph>
<glyph name="X" format="1">
  <advance width="761"/>
  <unicode hex="0058"/>
  <outline>
    <contour>
      <point x="-3" y="0" type="line"/>
      <point x="-3" y="93" type="line"/>
      <point x="79" y="128" type="line"/>
      <point x="341" y="880" type="line"/>
      <point x="367" y="880" type="line"/>
      <point x="508" y="1365" type="line"/>
      <point x="433" y="1394" type="line"/>
      <point x="433" y="1500" type="line"/>
      <point x="728" y="1500" type="line"/>
      <point x="728" y="1394" type="line"/>
      <point x="648" y="1365" type="line"/>
      <point x="425" y="715" type="line"/>
      <point x="399" y="715" type="line"/>
      <point x="218" y="123" type="line"/>
      <point x="298" y="93" type="line"/>
      <point x="298" y="0" type="line"/>
    </contour>
    <contour>
      <point x="23" y="1394" type="line"/>
      <point x="23" y="1500" type="line"/>
      <point x="354" y="1500" type="line"/>
      <point x="354" y="1394" type="line"/>
      <point x="273" y="1363" type="line"/>
      <point x="439" y="821" type="line"/>
      <point x="675" y="128" type="line"/>
      <point x="770" y="93" type="line"/>
      <point x="770" y="0" type="line"/>
      <point x="416" y="0" type="line"/>
      <point x="416" y="93" type="line"/>
      <point x="508" y="128" type="line"/>
      <point x="321" y="756" type="line"/>
      <point x="108" y="1364" type="line"/>
    </contour>
  </outline>
</glyph>
<glyph name="Z" format="1">
  <advance width="612"/>
  <unicode hex="005A"/>
  <outline>
    <contour>
      <point x="36" y="0" type="line"/>
      <point x="9" y="86" type="line"/>
      <point x="239" y="776" type="line"/>
      <point x="430" y="1383" type="line"/>
      <point x="422" y="1391" type="line"/>
      <point x="186" y="1391" type="line"/>
      <point x="145" y="1135" type="line"/>
      <point x="45" y="1135" type="line"/>
      <point x="45" y="1500" type="line"/>
      <point x="585" y="1500" type="line"/>
      <point x="585" y="1416" type="line"/>
      <point x="366" y="737" type="line"/>
      <point x="173" y="112" type="line"/>
      <point x="182" y="100" type="line"/>
      <point x="439" y="100" type="line"/>
      <point x="521" y="318" type="line"/>
      <point x="609" y="318" type="line"/>
      <point x="569" y="0" type="line"/>
    </contour>
  </outline>
</glyph>
<glyph name="backslash" format="1">
  <advance width="363"/>
  <unicode hex="005C"/>
  <outline>
    <contour>
      <point x="-1" y="1518" type="line"/>
      <point x="101" y="1533" type="line"/>
      <point x="374" y="-140" type="line"/>
      <point x="272" y="-154" type="line"/>
    </contour>
  </outline>
</glyph>
<glyph name="underscore" format="1">
  <advance width="764"/>
  <unicode hex="005F"/>
  <outline>
    <contour>
      <point x="-5" y="-479" type="line"/>
      <point x="-5" y="-371" type="line"/>
      <point x="383" y="-359" type="line"/>
      <point x="769" y="-371" type="line"/>
      <point x="769" y="-479" type="line"/>
      <point x="383" y="-475" type="line"/>
    </contour>
  </outline>
</glyph>
<glyph name="grave" format="1">
  <advance width="517"/>
  <unicode hex="0060"/>
  <outline>
    <contour>
      <point x="128" y="1333" type="qcurve" smooth="yes"/>
      <point x="128" y="1354"/>
      <point x="155" y="1389"/>
      <point x="184" y="1389" type="qcurve" smooth="yes"/>
      <point x="210" y="1389"/>
      <point x="256" y="1341"/>
      <point x="271" y="1305" type="qcurve" smooth="yes"/>
      <point x="385" y="1060" type="line"/>
      <point x="305" y="1060" type="line"/>
      <point x="170" y="1245" type="line" smooth="yes"/>
      <point x="152" y="1270"/>
      <point x="128" y="1311"/>
    </contour>
  </outline>
</glyph>
<glyph name="a" format="1">
  <advance width="623"/>
  <unicode hex="0061"/>
  <outline>
    <contour>
      <point x="23" y="264" type="qcurve" smooth="yes"/>
      <point x="23" y="392"/>
      <point x="191" y="590"/>
      <point x="389" y="661" type="qcurve"/>
      <point x="392" y="587" type="line"/>
      <point x="285" y="540"/>
      <point x="176" y="390"/>
      <point x="176" y="263" type="qcurve" smooth="yes"/>
      <point x="176" y="154"/>
      <point x="228" y="94"/>
      <point x="271" y="94" type="qcurve" smooth="yes"/>
      <point x="317" y="94"/>
      <point x="384" y="170"/>
      <point x="387" y="258" type="qcurve"/>
      <point x="430" y="257" type="line"/>
      <point x="431" y="138"/>
      <point x="301" y="-11"/>
      <point x="210" y="-11" type="qcurve" smooth="yes"/>
      <point x="117" y="-11"/>
      <point x="23" y="135"/>
    </contour>
    <contour>
      <point x="85" y="871" type="line"/>
      <point x="113" y="931"/>
      <point x="220" y="1022"/>
      <point x="304" y="1022" type="qcurve" smooth="yes"/>
      <point x="406" y="1022"/>
      <point x="516" y="887"/>
      <point x="517" y="732" type="qcurve" smooth="yes"/>
      <point x="521" y="112" type="line"/>
      <point x="607" y="74" type="line"/>
      <point x="607" y="0" type="line"/>
      <point x="435" y="0" type="line"/>
      <point x="392" y="51" type="line"/>
      <point x="376" y="150" type="line"/>
      <point x="378" y="686" type="line" smooth="yes"/>
      <point x="379" y="834"/>
      <point x="325" y="912"/>
      <point x="270" y="912" type="qcurve" smooth="yes"/>
      <point x="230" y="912"/>
      <point x="165" y="875"/>
      <point x="133" y="826" type="qcurve"/>
    </contour>
  </outline>
</glyph>
<glyph name="f" format="1">
  <advance width="407"/>
  <unicode hex="0066"/>
  <outline>
    <contour>
      <point x="19" y="0" type="line"/>
      <point x="19" y="74" type="line"/>
      <point x="116" y="112" type="line"/>
      <point x="121" y="527" type="line"/>
      <point x="120" y="856" type="line"/>
      <point x="22" y="884" type="line"/>
      <point x="22" y="966" type="line"/>
      <point x="122" y="984" type="line"/>
      <point x="120" y="1323" type="line" smooth="yes"/>
      <point x="119" y="1436"/>
      <point x="219" y="1532"/>
      <point x="305" y="1532" type="qcurve"/>
      <point x="381" y="1501" type="line"/>
      <point x="381" y="1418" type="line"/>
      <point x="266" y="1405" type="line"/>
      <point x="261" y="528" type="line"/>
      <point x="265" y="112" type="line"/>
      <point x="380" y="74" type="line"/>
      <point x="380" y="0" type="line"/>
    </contour>
    <contour>
      <point x="232" y="879" type="line"/>
      <point x="236" y="974" type="line"/>
      <point x="393" y="974" type="line"/>
      <point x="393" y="879" type="line"/>
    </contour>
  </outline>
</glyph>
<glyph name="h" format="1">
  <advance width="717"/>
  <unicode hex="0068"/>
  <outline>
    <contour>
      <point x="25" y="0" type="line"/>
      <point x="25" y="74" type="line"/>
      <point x="107" y="112" type="line"/>
      <point x="109" y="527" type="line"/>
      <point x="107" y="1380" type="line"/>
      <point x="11" y="1413" type="line"/>
      <point x="11" y="1500" type="line"/>
      <point x="202" y="1534" type="line"/>
      <point x="229" y="1533" type="line"/>
      <point x="252" y="1502" type="line"/>
      <point x="250" y="527" type="line"/>
      <point x="252" y="112" type="line"/>
      <point x="324" y="74" type="line"/>
      <point x="324" y="0" type="line"/>
    </contour>
    <contour>
      <point x="250" y="801" type="qcurve"/>
      <point x="220" y="832" type="line"/>
      <point x="245" y="917"/>
      <point x="361" y="1021"/>
      <point x="440" y="1021" type="qcurve" smooth="yes"/>
      <point x="526" y="1021"/>
      <point x="610" y="933"/>
      <point x="610" y="856" type="qcurve" smooth="yes"/>
      <point x="610" y="813"/>
      <point x="608" y="527"/>
      <point x="608" y="527" type="qcurve"/>
      <point x="612" y="112" type="line"/>
      <point x="696" y="74" type="line"/>
      <point x="696" y="0" type="line"/>
      <point x="393" y="0" type="line"/>
      <point x="393" y="74" type="line"/>
      <point x="467" y="112" type="line"/>
      <point x="469" y="527" type="line"/>
      <point x="469" y="786" type="line" smooth="yes"/>
      <point x="469" y="829"/>
      <point x="424" y="887"/>
      <point x="379" y="887" type="qcurve" smooth="yes"/>
      <point x="342" y="887"/>
      <point x="272" y="844"/>
    </contour>
  </outline>
</glyph>
<glyph name="j" format="1">
  <advance width="353"/>
  <unicode hex="006A"/>
  <outline>
    <contour>
      <point x="-3" y="-408" type="line"/>
      <point x="-3" y="-351" type="line"/>
      <point x="113" y="-317" type="line"/>
      <point x="112" y="527" type="line"/>
      <point x="106" y="852" type="line"/>
      <point x="16" y="886" type="line"/>
      <point x="16" y="973" type="line"/>
      <point x="201" y="1008" type="line"/>
      <point x="239" y="1007" type="line"/>
      <point x="259" y="968" type="line"/>
      <point x="255" y="527" type="line"/>
      <point x="256" y="-228" type="line" smooth="yes"/>
      <point x="256" y="-344"/>
      <point x="162" y="-438"/>
      <point x="78" y="-438" type="qcurve"/>
    </contour>
    <contour>
      <point x="78" y="1324" type="qcurve" smooth="yes"/>
      <point x="78" y="1375"/>
      <point x="128" y="1431"/>
      <point x="176" y="1431" type="qcurve" smooth="yes"/>
      <point x="221" y="1431"/>
      <point x="275" y="1371"/>
      <point x="275" y="1324" type="qcurve" smooth="yes"/>
      <point x="275" y="1273"/>
      <point x="224" y="1217"/>
      <point x="176" y="1217" type="qcurve" smooth="yes"/>
      <point x="131" y="1217"/>
      <point x="78" y="1277"/>
    </contour>
  </outline>
</glyph>
<glyph name="k" format="1">
  <advance width="696"/>
  <unicode hex="006B"/>
  <outline>
    <contour>
      <point x="25" y="0" type="line"/>
      <point x="25" y="74" type="line"/>
      <point x="107" y="112" type="line"/>
      <point x="109" y="526" type="line"/>
      <point x="107" y="1380" type="line"/>
      <point x="15" y="1413" type="line"/>
      <point x="15" y="1500" type="line"/>
      <point x="204" y="1534" type="line"/>
      <point x="229" y="1533" type="line"/>
      <point x="252" y="1502" type="line"/>
      <point x="250" y="509" type="line"/>
      <point x="252" y="112" type="line"/>
      <point x="324" y="74" type="line"/>
      <point x="324" y="0" type="line"/>
    </contour>
    <contour>
      <point x="223" y="418" type="line"/>
      <point x="217" y="525" type="line"/>
      <point x="440" y="887" type="line"/>
      <point x="378" y="917" type="line"/>
      <point x="378" y="1000" type="line"/>
      <point x="621" y="1000" type="line"/>
      <point x="621" y="917" type="line"/>
      <point x="548" y="882" type="line"/>
    </contour>
    <contour>
      <point x="302" y="594" type="line"/>
      <point x="398" y="745" type="line"/>
      <point x="616" y="112" type="line"/>
      <point x="699" y="74" type="line"/>
      <point x="699" y="0" type="line"/>
      <point x="525" y="0" type="line"/>
      <point x="497" y="21" type="line"/>
      <point x="458" y="111" type="line"/>
    </contour>
  </outline>
</glyph>
<glyph name="o" format="1">
  <advance width="653"/>
  <unicode hex="006F"/>
  <outline>
    <contour>
      <point x="30" y="500" type="qcurve" smooth="yes"/>
      <point x="30" y="757"/>
      <point x="192" y="1022"/>
      <point x="325" y="1022" type="qcurve" smooth="yes"/>
      <point x="459" y="1022"/>
      <point x="622" y="771"/>
      <point x="622" y="506" type="qcurve" smooth="yes"/>
      <point x="622" y="242"/>
      <point x="467" y="-21"/>
      <point x="328" y="-21" type="qcurve" smooth="yes"/>
      <point x="190" y="-21"/>
      <point x="30" y="237"/>
    </contour>
    <contour>
      <point x="183" y="517" type="qcurve" smooth="yes"/>
      <point x="183" y="275"/>
      <point x="249" y="81"/>
      <point x="325" y="81" type="qcurve" smooth="yes"/>
      <point x="404" y="81"/>
      <point x="470" y="253"/>
      <point x="468" y="506" type="qcurve" smooth="yes"/>
      <point x="466" y="752"/>
      <point x="399" y="911"/>
      <point x="325" y="911" type="qcurve" smooth="yes"/>
      <point x="251" y="911"/>
      <point x="182" y="754"/>
    </contour>
  </outline>
</glyph>
<glyph name="q" format="1">
  <advance width="678"/>
  <unicode hex="0071"/>
  <outline>
    <contour>
      <point x="31" y="493" type="qcurve" smooth="yes"/>
      <point x="31" y="766"/>
      <point x="184" y="1021"/>
      <point x="311" y="1021" type="qcurve" smooth="yes"/>
      <point x="373" y="1021"/>
      <point x="481" y="944"/>
      <point x="498" y="891" type="qcurve"/>
      <point x="446" y="836" type="line"/>
      <point x="430" y="876"/>
      <point x="372" y="921"/>
      <point x="324" y="921" type="qcurve" smooth="yes"/>
      <point x="257" y="921"/>
      <point x="185" y="763"/>
      <point x="185" y="504" type="qcurve" smooth="yes"/>
      <point x="185" y="237"/>
      <point x="246" y="88"/>
      <point x="313" y="88" type="qcurve" smooth="yes"/>
      <point x="366" y="88"/>
      <point x="432" y="164"/>
      <point x="450" y="219" type="qcurve"/>
      <point x="500" y="203" type="line"/>
      <point x="478" y="106"/>
      <point x="368" y="-10"/>
      <point x="281" y="-10" type="qcurve" smooth="yes"/>
      <point x="171" y="-10"/>
      <point x="31" y="224"/>
    </contour>
    <contour>
      <point x="334" y="-429" type="line"/>
      <point x="334" y="-355" type="line"/>
      <point x="432" y="-317" type="line"/>
      <point x="438" y="264" type="line"/>
      <point x="440" y="916" type="line"/>
      <point x="499" y="1008" type="line"/>
      <point x="663" y="976" type="line"/>
      <point x="663" y="889" type="line"/>
      <point x="580" y="863" type="line"/>
      <point x="576" y="440" type="line"/>
      <point x="577" y="-317" type="line"/>
      <point x="661" y="-355" type="line"/>
      <point x="661" y="-429" type="line"/>
    </contour>
  </outline>
</glyph>
<glyph name="r" format="1">
  <advance width="537"/>
  <unicode hex="0072"/>
  <outline>
    <contour>
      <point x="25" y="0" type="line"/>
      <point x="25" y="74" type="line"/>
      <point x="109" y="112" type="line"/>
      <point x="111" y="527" type="line"/>
      <point x="109" y="854" type="line"/>
      <point x="25" y="886" type="line"/>
      <point x="25" y="973" type="line"/>
      <point x="205" y="1007" type="line"/>
      <point x="234" y="985" type="line"/>
      <point x="254" y="879" type="line"/>
      <point x="251" y="527" type="line"/>
      <point x="254" y="112" type="line"/>
      <point x="343" y="74" type="line"/>
      <point x="343" y="0" type="line"/>
    </contour>
    <contour>
      <point x="206" y="735" type="qcurve"/>
      <point x="179" y="787" type="line"/>
      <point x="199" y="878"/>
      <point x="342" y="1001"/>
      <point x="456" y="1001" type="qcurve" smooth="yes"/>
      <point x="522" y="1001" type="line"/>
      <point x="522" y="748" type="line"/>
      <point x="429" y="748" type="line"/>
      <point x="399" y="877" type="line"/>
      <point x="341" y="877"/>
      <point x="243" y="809"/>
    </contour>
  </outline>
</glyph>
<glyph name="s" format="1">
  <advance width="520"/>
  <unicode hex="0073"/>
  <outline>
    <contour>
      <point x="19" y="0" type="line"/>
      <point x="19" y="308" type="line"/>
      <point x="105" y="308" type="line"/>
      <point x="153" y="116" type="line"/>
      <point x="90" y="0" type="line"/>
    </contour>
    <contour>
      <point x="31" y="799" type="qcurve" smooth="yes"/>
      <point x="31" y="899"/>
      <point x="139" y="1018"/>
      <point x="226" y="1018" type="qcurve" smooth="yes"/>
      <point x="292" y="1018"/>
      <point x="363" y="970"/>
      <point x="388" y="924" type="qcurve"/>
      <point x="359" y="851" type="line"/>
      <point x="340" y="879"/>
      <point x="272" y="925"/>
      <point x="234" y="925" type="qcurve" smooth="yes"/>
      <point x="184" y="925"/>
      <point x="136" y="875"/>
      <point x="136" y="835" type="qcurve" smooth="yes"/>
      <point x="136" y="773"/>
      <point x="229" y="662"/>
      <point x="311" y="605" type="qcurve" smooth="yes"/>
      <point x="404" y="535"/>
      <point x="506" y="371"/>
      <point x="506" y="248" type="qcurve" smooth="yes"/>
      <point x="506" y="133"/>
      <point x="387" y="-14"/>
      <point x="286" y="-14" type="qcurve" smooth="yes"/>
      <point x="199" y="-14"/>
      <point x="95" y="76"/>
      <point x="63" y="148" type="qcurve"/>
      <point x="115" y="219" type="line"/>
      <point x="130" y="162"/>
      <point x="220" y="77"/>
      <point x="274" y="77" type="qcurve" smooth="yes"/>
      <point x="330" y="77"/>
      <point x="395" y="145"/>
      <point x="395" y="209" type="qcurve" smooth="yes"/>
      <point x="395" y="288"/>
      <point x="307" y="397"/>
      <point x="214" y="470" type="qcurve" smooth="yes"/>
      <point x="118" y="547"/>
      <point x="31" y="689"/>
    </contour>
    <contour>
      <point x="328" y="887" type="line"/>
      <point x="381" y="1000" type="line"/>
      <point x="460" y="1000" type="line"/>
      <point x="460" y="722" type="line"/>
      <point x="368" y="722" type="line"/>
    </contour>
  </outline>
</glyph>
<glyph name="t" format="1">
  <advance width="391"/>
  <unicode hex="0074"/>
  <outline>
    <contour>
      <point x="9" y="882" type="line"/>
      <point x="9" y="965" type="line"/>
      <point x="78" y="997"/>
      <point x="165" y="1117"/>
      <point x="182" y="1187" type="qcurve"/>
      <point x="228" y="1187" type="line"/>
      <point x="254" y="1126" type="line"/>
      <point x="240" y="527" type="line"/>
      <point x="247" y="136" type="line"/>
      <point x="279" y="104" type="line"/>
      <point x="372" y="103" type="line"/>
      <point x="372" y="29" type="line"/>
      <point x="204" y="-8" type="line"/>
      <point x="135" y="-7"/>
      <point x="92" y="58"/>
      <point x="92" y="109" type="qcurve"/>
      <point x="98" y="527" type="line"/>
      <point x="98" y="859" type="line"/>
    </contour>
    <contour>
      <point x="204" y="879" type="line"/>
      <point x="208" y="973" type="line"/>
      <point x="378" y="973" type="line"/>
      <point x="378" y="879" type="line"/>
    </contour>
  </outline>
</glyph>
<glyph name="v" format="1">
  <advance width="630"/>
  <unicode hex="0076"/>
  <outline>
    <contour>
      <point x="-10" y="917" type="line"/>
      <point x="-10" y="1000" type="line"/>
      <point x="282" y="1000" type="line"/>
      <point x="282" y="917" type="line"/>
      <point x="205" y="877" type="line"/>
      <point x="263" y="569" type="line"/>
      <point x="320" y="271" type="line"/>
      <point x="382" y="596" type="line"/>
      <point x="440" y="886" type="line"/>
      <point x="364" y="917" type="line"/>
      <point x="364" y="1000" type="line"/>
      <point x="628" y="1000" type="line"/>
      <point x="628" y="917" type="line"/>
      <point x="548" y="882" type="line"/>
      <point x="480" y="577" type="line"/>
      <point x="368" y="-6" type="line"/>
      <point x="249" y="-6" type="line"/>
      <point x="151" y="478" type="line"/>
      <point x="63" y="878" type="line"/>
    </contour>
  </outline>
</glyph>
<glyph name="y" format="1">
  <advance width="615"/>
  <unicode hex="0079"/>
  <outline>
    <contour>
      <point x="-12" y="917" type="line"/>
      <point x="-12" y="1000" type="line"/>
      <point x="280" y="1000" type="line"/>
      <point x="280" y="917" type="line"/>
      <point x="201" y="877" type="line"/>
      <point x="260" y="574" type="line"/>
      <point x="320" y="276" type="line"/>
      <point x="380" y="596" type="line"/>
      <point x="438" y="886" type="line"/>
      <point x="362" y="917" type="line"/>
      <point x="362" y="1000" type="line"/>
      <point x="625" y="1000" type="line"/>
      <point x="625" y="917" type="line"/>
      <point x="547" y="882" type="line"/>
      <point x="479" y="579" type="line"/>
      <point x="322" y="-191" type="line" smooth="yes"/>
      <point x="291" y="-353"/>
      <point x="146" y="-463"/>
      <point x="73" y="-463" type="qcurve"/>
      <point x="-12" y="-430" type="line"/>
      <point x="-12" y="-347" type="line"/>
      <point x="33" y="-347" type="line" smooth="yes"/>
      <point x="93" y="-347"/>
      <point x="207" y="-266"/>
      <point x="229" y="-153" type="qcurve" smooth="yes"/>
      <point x="254" y="-5" type="line"/>
      <point x="150" y="481" type="line"/>
      <point x="60" y="878" type="line"/>
    </contour>
  </outline>
</glyph>
<glyph name="bar" format="1">
  <advance width="399"/>
  <unicode hex="007C"/>
  <outline>
    <contour>
      <point x="123" y="-531" type="line"/>
      <point x="134" y="-58" type="line"/>
      <point x="152" y="250" type="line"/>
      <point x="150" y="830" type="line"/>
      <point x="134" y="1138" type="line"/>
      <point x="123" y="1489" type="line"/>
      <point x="276" y="1541" type="line"/>
      <point x="265" y="1138" type="line"/>
      <point x="247" y="830" type="line"/>
      <point x="249" y="250" type="line"/>
      <point x="265" y="-58" type="line"/>
      <point x="276" y="-479" type="line"/>
    </contour>
  </outline>
</glyph>
<glyph name="asciitilde" format="1">
  <advance width="650"/>
  <unicode hex="007E"/>
  <outline>
    <contour>
      <point x="17" y="596" type="line"/>
      <point x="56" y="686"/>
      <point x="166" y="789"/>
      <point x="222" y="792" type="qcurve"/>
      <point x="424" y="691" type="line"/>
      <point x="463" y="691"/>
      <point x="531" y="755"/>
      <point x="552" y="806" type="qcurve"/>
      <point x="632" y="751" type="line"/>
      <point x="601" y="647"/>
      <point x="506" y="531"/>
      <point x="434" y="527" type="qcurve"/>
      <point x="237" y="625" type="line"/>
      <point x="198" y="625"/>
      <point x="125" y="571"/>
      <point x="90" y="532" type="qcurve"/>
    </contour>
  </outline>
</glyph>
<glyph name="cid11261" format="1">
  <advance width="2000"/>
  <unicode hex="524D"/>
  <outline>
    <contour>
      <point x="470" y="1644" type="line"/>
      <point x="531.1940298507462" y="1588.7761194029852"/>
      <point x="666.5671641791045" y="1427.6119402985075"/>
      <point x="680" y="1350" type="qcurve"/>
      <point x="784.4776119402985" y="1276.865671641791"/>
      <point x="837.4328358208954" y="1592.955223880597"/>
      <point x="524" y="1684" type="qcurve"/>
    </contour>
    <contour>
      <point x="360" y="320" type="line"/>
      <point x="800" y="320" type="line"/>
      <point x="800" y="68" type="line" smooth="yes"/>
      <point x="800.0" y="48.59701492537314"/>
      <point x="784.3880597014926" y="30.0"/>
      <point x="762" y="30" type="qcurve" smooth="yes"/>
      <point x="735.1343283582089" y="30.0"/>
      <point x="582.0" y="42.0"/>
      <point x="582" y="42" type="qcurve"/>
      <point x="582" y="-20" type="line"/>
      <point x="634.2388059701492" y="-25.970149253731343"/>
      <point x="695.0746268656717" y="-49.07462686567165"/>
      <point x="710" y="-64" type="qcurve" smooth="yes"/>
      <point x="726.4179104477612" y="-78.92537313432835"/>
      <point x="743.0149253731344" y="-123.64179104477611"/>
      <point x="746" y="-152" type="qcurve"/>
      <point x="865.4029850746268" y="-140.05970149253733"/>
      <point x="926.0" y="-50.119402985074615"/>
      <point x="926" y="26" type="qcurve" smooth="yes"/>
      <point x="926" y="934" type="line"/>
      <point x="963.3134328358209" y="938.4776119402985"/>
      <point x="1015.5522388059702" y="967.0746268656717"/>
      <point x="1026" y="982" type="qcurve"/>
      <point x="846" y="1120" type="line"/>
      <point x="780" y="1038" type="line"/>
      <point x="440" y="1038" type="line"/>
      <point x="290" y="1102" type="line"/>
      <point x="290" y="558" type="line" smooth="yes"/>
      <point x="290.0" y="363.9701492537314"/>
      <point x="230.98507462686567" y="2.2388059701492296"/>
      <point x="128" y="-150" type="qcurve"/>
      <point x="184" y="-200" type="line"/>
      <point x="386.2388059701492" y="-26.11940298507463"/>
      <point x="416.0" y="461.7313432835821"/>
      <point x="416" y="558" type="qcurve" smooth="yes"/>
      <point x="416" y="634" type="line"/>
      <point x="800" y="634" type="line"/>
      <point x="800" y="420" type="line"/>
      <point x="360" y="420" type="line"/>
    </contour>
    <contour>
      <point x="800" y="938" type="line"/>
      <point x="800" y="734" type="line"/>
      <point x="416" y="734" type="line"/>
      <point x="416" y="938" type="line"/>
    </contour>
    <contour>
      <point x="1298" y="966" type="line"/>
      <point x="1345.7611940298507" y="970.4776119402985"/>
      <point x="1391.2686567164178" y="1014.6268656716418"/>
      <point x="1395" y="1040" type="qcurve"/>
      <point x="1174" y="1064" type="line"/>
      <point x="1174" y="174" type="line"/>
      <point x="1198" y="174" type="line" smooth="yes"/>
      <point x="1232.3283582089553" y="174.0"/>
      <point x="1298.0" y="205.044776119403"/>
      <point x="1298" y="214" type="qcurve" smooth="yes"/>
    </contour>
    <contour>
      <point x="1560" y="70" type="line" smooth="yes"/>
      <point x="1560.0" y="47.61194029850746"/>
      <point x="1540.358208955224" y="28.0"/>
      <point x="1512" y="28" type="qcurve" smooth="yes"/>
      <point x="1480.6567164179105" y="28.0"/>
      <point x="1262.0" y="44.0"/>
      <point x="1262" y="44" type="qcurve"/>
      <point x="1262" y="-18" type="line"/>
      <point x="1329.1641791044776" y="-25.462686567164177"/>
      <point x="1410.1194029850747" y="-49.582089552238806"/>
      <point x="1434" y="-66" type="qcurve" smooth="yes"/>
      <point x="1454.8955223880596" y="-79.43283582089552"/>
      <point x="1475.0149253731342" y="-125.13432835820896"/>
      <point x="1478" y="-152" type="qcurve"/>
      <point x="1616.8059701492537" y="-140.05970149253733"/>
      <point x="1686.0" y="-47.1044776119403"/>
      <point x="1686" y="32" type="qcurve" smooth="yes"/>
      <point x="1686" y="1016" type="line"/>
      <point x="1735.2537313432836" y="1018.9850746268656"/>
      <point x="1779.7761194029852" y="1055.8955223880598"/>
      <point x="1785" y="1085" type="qcurve"/>
      <point x="1560" y="1110" type="line"/>
    </contour>
    <contour>
      <point x="1638" y="1302" type="line"/>
      <point x="1230" y="1302" type="line"/>
      <point x="1303.134328358209" y="1364.686567164179"/>
      <point x="1424.7462686567164" y="1514.8059701492537"/>
      <point x="1474" y="1576" type="qcurve"/>
      <point x="1505.3432835820895" y="1574.5074626865671"/>
      <point x="1544.5373134328358" y="1596.089552238806"/>
      <point x="1552" y="1614" type="qcurve"/>
      <point x="1340" y="1676" type="line"/>
      <point x="1307.1641791044776" y="1590.9253731343283"/>
      <point x="1180.2388059701493" y="1384.089552238806"/>
      <point x="1128" y="1302" type="qcurve"/>
      <point x="82" y="1302" type="line"/>
      <point x="110" y="1202" type="line"/>
      <point x="1870" y="1202" type="line" smooth="yes"/>
      <point x="1898.358208955224" y="1202.0"/>
      <point x="1933.5223880597016" y="1235.6119402985075"/>
      <point x="1938" y="1258" type="qcurve"/>
      <point x="1885.7611940298507" y="1307.2537313432836"/>
      <point x="1740.0" y="1426.0"/>
      <point x="1740" y="1426" type="qcurve"/>
    </contour>
  </outline>
</glyph>
